<svg xmlns="http://www.w3.org/2000/svg" viewBox="0 0 1600 900" width="1600" height="900">
  <defs>
    <radialGradient id="glow" cx="0.7" cy="0.44" r="0.62">
      <stop offset="0" stop-color="#ff4d4d" stop-opacity="0.36"/>
      <stop offset="0.5" stop-color="#ff4d4d" stop-opacity="0.09"/>
      <stop offset="1" stop-color="#ff4d4d" stop-opacity="0"/>
    </radialGradient>
    <pattern id="grid" width="48" height="48" patternUnits="userSpaceOnUse">
      <path d="M48 0H0V48" fill="none" stroke="#ffffff" stroke-opacity="0.05"/>
    </pattern>
    <linearGradient id="shade" x1="0" y1="0" x2="0" y2="1">
      <stop offset="0.5" stop-color="#0a0a0b" stop-opacity="0"/>
      <stop offset="1" stop-color="#0a0a0b" stop-opacity="0.94"/>
    </linearGradient>
    <filter id="grain" x="0" y="0" width="100%" height="100%">
      <feTurbulence type="fractalNoise" baseFrequency="0.8" numOctaves="2" stitchTiles="stitch"/>
      <feColorMatrix values="0 0 0 0 1  0 0 0 0 1  0 0 0 0 1  0.14 0 0 0 0"/>
    </filter>
    <filter id="soft" x="-60%" y="-60%" width="220%" height="220%">
      <feGaussianBlur stdDeviation="28"/>
    </filter>
  </defs>
  <rect width="1600" height="900" fill="#0a0a0b"/>
  <rect width="1600" height="900" fill="url(#glow)"/>
  <rect width="1600" height="900" fill="url(#grid)"/>
  <defs>
    <clipPath id="arm"><rect x="930" y="290" width="560" height="70" rx="10"/></clipPath>
    <clipPath id="bar"><rect x="930" y="360" width="560" height="56"/></clipPath>
  </defs>
  <rect x="930" y="360" width="560" height="300" rx="20" fill="#141417" stroke="#ffffff" stroke-opacity="0.18" stroke-width="2"/>
  <rect x="930" y="360" width="560" height="56" fill="#1d1d22"/>
  <g clip-path="url(#bar)"><polygon points="890.0,416.0 930.0,416.0 974.0,360.0 934.0,360.0" fill="#f5f5f6"/><polygon points="974.0,416.0 1014.0,416.0 1058.0,360.0 1018.0,360.0" fill="#f5f5f6"/><polygon points="1058.0,416.0 1098.0,416.0 1142.0,360.0 1102.0,360.0" fill="#f5f5f6"/><polygon points="1142.0,416.0 1182.0,416.0 1226.0,360.0 1186.0,360.0" fill="#f5f5f6"/><polygon points="1226.0,416.0 1266.0,416.0 1310.0,360.0 1270.0,360.0" fill="#f5f5f6"/><polygon points="1310.0,416.0 1350.0,416.0 1394.0,360.0 1354.0,360.0" fill="#f5f5f6"/><polygon points="1394.0,416.0 1434.0,416.0 1478.0,360.0 1438.0,360.0" fill="#f5f5f6"/><polygon points="1478.0,416.0 1518.0,416.0 1562.0,360.0 1522.0,360.0" fill="#f5f5f6"/></g>
  <g transform="rotate(-13 930 360)">
    <rect x="930" y="290" width="560" height="70" rx="10" fill="#1d1d22"/>
    <g clip-path="url(#arm)"><polygon points="890.0,360.0 930.0,360.0 974.0,290.0 934.0,290.0" fill="#f5f5f6"/><polygon points="974.0,360.0 1014.0,360.0 1058.0,290.0 1018.0,290.0" fill="#f5f5f6"/><polygon points="1058.0,360.0 1098.0,360.0 1142.0,290.0 1102.0,290.0" fill="#f5f5f6"/><polygon points="1142.0,360.0 1182.0,360.0 1226.0,290.0 1186.0,290.0" fill="#f5f5f6"/><polygon points="1226.0,360.0 1266.0,360.0 1310.0,290.0 1270.0,290.0" fill="#f5f5f6"/><polygon points="1310.0,360.0 1350.0,360.0 1394.0,290.0 1354.0,290.0" fill="#f5f5f6"/><polygon points="1394.0,360.0 1434.0,360.0 1478.0,290.0 1438.0,290.0" fill="#f5f5f6"/><polygon points="1478.0,360.0 1518.0,360.0 1562.0,290.0 1522.0,290.0" fill="#f5f5f6"/></g>
  </g>
  <circle cx="930" cy="360" r="12" fill="#2a2a30" stroke="#ffffff" stroke-opacity="0.3"/>
  <path d="M1117 440V636M1304 440V636" stroke="#ffffff" stroke-opacity="0.1"/>
  <text x="962.0" y="478.0" text-anchor="start" font-family="'JetBrains Mono', 'SF Mono', Menlo, Consolas, monospace" font-size="20" letter-spacing="4" fill="#ffffff" fill-opacity="0.45">СЦЕНА</text>
  <text x="1149.0" y="478.0" text-anchor="start" font-family="'JetBrains Mono', 'SF Mono', Menlo, Consolas, monospace" font-size="20" letter-spacing="4" fill="#ffffff" fill-opacity="0.45">ДУБЛЬ</text>
  <text x="1336.0" y="478.0" text-anchor="start" font-family="'JetBrains Mono', 'SF Mono', Menlo, Consolas, monospace" font-size="20" letter-spacing="4" fill="#ffffff" fill-opacity="0.45">КАМЕРА</text>
  <text x="960" y="582" font-family="Inter, 'Helvetica Neue', Helvetica, Arial, sans-serif" font-size="88" font-weight="700" fill="#ffffff">04</text>
  <text x="1147" y="582" font-family="Inter, 'Helvetica Neue', Helvetica, Arial, sans-serif" font-size="88" font-weight="700" fill="#ffffff">2</text>
  <text x="1334" y="582" font-family="Inter, 'Helvetica Neue', Helvetica, Arial, sans-serif" font-size="88" font-weight="700" fill="#b5f23d">A</text>
  <circle cx="970" cy="622" r="9" fill="#ff4d4d"/>
  <text x="990.0" y="629.0" text-anchor="start" font-family="'JetBrains Mono', 'SF Mono', Menlo, Consolas, monospace" font-size="20" letter-spacing="4" fill="#ffffff" fill-opacity="0.6">REC</text>
  <rect width="1600" height="900" fill="url(#shade)"/>
  <text x="96.0" y="132.0" text-anchor="start" font-family="'JetBrains Mono', 'SF Mono', Menlo, Consolas, monospace" font-size="28" letter-spacing="4" fill="#b5f23d" fill-opacity="1">ONER · 05 — РЕЖИССУРА</text>
  <text x="1504.0" y="132.0" text-anchor="end" font-family="'JetBrains Mono', 'SF Mono', Menlo, Consolas, monospace" font-size="26" letter-spacing="4" fill="#ffffff" fill-opacity="0.5">Сценарий и площадка</text>
  <text x="88" y="806" font-family="Inter, 'Helvetica Neue', Helvetica, Arial, sans-serif" font-size="196" font-weight="700" letter-spacing="-8.8" fill="#ffffff">Режиссура<tspan fill="#b5f23d">.</tspan></text>
  <rect width="1600" height="900" filter="url(#grain)"/>
</svg>
